# xmcd CD database file
#
# Track frame offsets:
#	150
#	49807
#	61017
#	78343
#	90300
#	103290
#	125442
#	158767
#	173900
#	185775
#	196226
#	209090
#	228111
#	238515
#	251414
#
# Disc length: 3975 seconds
#
# Revision: 0
# Processed by: cddbd v1.5.1PL2 Copyright (c) Steve Scherf et al.
# Submitted via: CDex 1.51
#
DISCID=c40f850f
DTITLE=The Chambers Brothers - Time Has Come: The Best Of
DYEAR=1996
DGENRE=Rhythmic Soul
TTITLE0=time has come today
TTITLE1=all strung out over you
TTITLE2=people get ready
TTITLE3=i can´t stand it
TTITLE4=uptown
TTITLE5=i can´t turn you loose
TTITLE6=a new time - a new day
TTITLE7=you got the power - to turn me on
TTITLE8=are you ready 
TTITLE9=wake up
TTITLE10=love peace and happiness
TTITLE11=let´s do it
TTITLE12=new generation
TTITLE13=funky
TTITLE14=wade in the water
EXTD=YEAR: 1996
EXTT0=
EXTT1=
EXTT2=
EXTT3=
EXTT4=
EXTT5=
EXTT6=
EXTT7=
EXTT8=
EXTT9=
EXTT10=
EXTT11=
EXTT12=
EXTT13=
EXTT14=
PLAYORDER=
